# xmcd
#
# Track frame offsets: 
#        150
#        450
#        11781
#        35409
#        48169
#        70716
#        90771
#        107981
#        127426
#        151264
#        167531
#        184064
#
# Disc length: 2639 seconds
#
# Revision: 0
# Processed by: cddbd v1.5.2PL0 Copyright (c) Steve Scherf et al.
# Submitted via: ExactAudioCopy v1.3
#
DISCID=8d0a4d0c
DTITLE=Mitch Woods - Keeper Of The Flame
DYEAR=2004
DGENRE=Jump Blues
TTITLE0=Chicago Express
TTITLE1=Never Get Out Of These Blues
TTITLE2=Rocket 88
TTITLE3=Blues Ya 'Fore I Lose Ya
TTITLE4=Big Chief
TTITLE5=Blues Hangover
TTITLE6=Blue Boogie
TTITLE7=Full Tilt Boogie
TTITLE8=Moanin' N' Ticklin'
TTITLE9=Lonely, Lonely Nights
TTITLE10=Jump For Joy
TTITLE11=Blues For Michael
EXTD=
EXTT0=
EXTT1=
EXTT2=
EXTT3=
EXTT4=
EXTT5=
EXTT6=
EXTT7=
EXTT8=
EXTT9=
EXTT10=
EXTT11=
PLAYORDER=
